<?xml version="1.0" encoding="utf-8"?>
<!-- Generator: Adobe Illustrator 21.1.0, SVG Export Plug-In . SVG Version: 6.00 Build 0)  -->
<svg version="1.1" xmlns="http://www.w3.org/2000/svg" xmlns:xlink="http://www.w3.org/1999/xlink" x="0px" y="0px"
	 viewBox="0 0 95 76.333" enable-background="new 0 0 95 76.333" xml:space="preserve">
<g id="Guides">
</g>
<g id="Testimonials">
	<g>
		<path fill="#0276B9" d="M85.996,46.636c0-6.878-4.812-12.893-11.992-16.14c0.427,1.492,0.664,3.044,0.699,4.639
			c0.728,0.424,1.418,0.889,2.069,1.389c3.622,2.781,5.614,6.378,5.614,10.112c0,3.737-1.992,7.321-5.614,10.115
			c-3.972,3.057-9.31,4.748-15.036,4.748c-3.862,0-7.532-0.764-10.74-2.204c-2.005,0.388-4.074,0.638-6.204,0.725
			c4.376,3.298,10.352,5.329,16.945,5.329c4.235,0,8.206-0.841,11.677-2.307l8.822,4.498l-1.78-9.008
			C83.917,55.297,85.996,51.162,85.996,46.636L85.996,46.636z M85.996,46.636"/>
		<path fill="#0276B9" d="M72.198,32.614c-0.035-1.591-0.289-3.144-0.712-4.636C68.403,17.013,55.745,8.794,40.609,8.794
			c-17.458,0-31.605,10.914-31.605,24.371c0,5.89,2.708,11.292,7.218,15.501L13.89,60.408l11.504-5.877
			c4.527,1.918,9.701,3.009,15.216,3.009c0.561,0,1.113-0.013,1.678-0.038c2.117-0.074,4.199-0.324,6.192-0.725
			c13.647-2.695,23.733-12.245,23.733-23.611C72.211,32.979,72.198,32.803,72.198,32.614L72.198,32.614z M25.695,37.175
			c-2.531,0-4.597-2.053-4.597-4.597c0-2.531,2.066-4.6,4.597-4.6c2.544,0,4.6,2.069,4.6,4.6
			C30.295,35.122,28.239,37.175,25.695,37.175L25.695,37.175z M40.609,37.175c-2.544,0-4.6-2.053-4.6-4.597
			c0-2.531,2.056-4.6,4.6-4.6c2.531,0,4.597,2.069,4.597,4.6C45.206,35.122,43.14,37.175,40.609,37.175L40.609,37.175z
			 M55.507,37.175c-2.531,0-4.6-2.053-4.6-4.597c0-2.531,2.069-4.6,4.6-4.6c2.544,0,4.6,2.069,4.6,4.6
			C60.107,35.122,58.051,37.175,55.507,37.175L55.507,37.175z M55.507,37.175"/>
	</g>
</g>
</svg>
